<?xml version="1.0" encoding="utf-8"?>
<!-- Generator: Adobe Illustrator 19.0.0, SVG Export Plug-In . SVG Version: 6.00 Build 0)  -->
<svg version="1.1" id="Layer_1" xmlns="http://www.w3.org/2000/svg" xmlns:xlink="http://www.w3.org/1999/xlink" x="0px" y="0px"
	 viewBox="-273 365 64 64" style="enable-background:new -273 365 64 64;" xml:space="preserve">
<style type="text/css">
	.st0{fill:#999999;}
</style>
<g>
	<polygon class="st0" points="-244,408.2 -248.6,403.6 -251.4,406.4 -244,413.8 -230.6,400.4 -233.4,397.6 	"/>
	<path class="st0" d="M-225,389.9V383c0-8.8-7.2-16-16-16s-16,7.2-16,16v6.9c-3.7,3.9-6,9.2-6,15.1c0,12.1,9.9,22,22,22
		c12.2,0,22-9.9,22-22C-219,399.2-221.3,393.9-225,389.9z M-253,383c0-6.6,5.4-12,12-12s12,5.4,12,12v3.6c-3.5-2.3-7.6-3.6-12-3.6
		c-4.4,0-8.5,1.3-12,3.6V383z M-241,425c-11,0-20-9-20-20s9-20,20-20s20,9,20,20C-221,416-230,425-241,425z"/>
</g>
</svg>
