<?xml version="1.0" encoding="utf-8"?>
<!-- Generator: Adobe Illustrator 19.0.0, SVG Export Plug-In . SVG Version: 6.00 Build 0)  -->
<svg version="1.1" id="Layer_1" xmlns="http://www.w3.org/2000/svg" xmlns:xlink="http://www.w3.org/1999/xlink" x="0px" y="0px"
	 viewBox="-302.2 377.8 40.2 39.7" style="enable-background:new -302.2 377.8 40.2 39.7;" xml:space="preserve">
<style type="text/css">
	.st0{fill:#999999;}
</style>
<path class="st0" d="M-281,380.9c-8.9,0-16.1,7.2-16.1,16.1s7.2,16.1,16.1,16.1s16.1-7.2,16.1-16.1S-272.1,380.9-281,380.9z
	 M-266,397.1c0,8.3-6.7,15-15,15s-15-6.7-15-15s6.7-15,15-15S-266,388.8-266,397.1z M-281,386c3.9,0,7,3.1,7,7s-3.1,7-7,7
	s-7-3.1-7-7S-284.9,386-281,386z M-290,407.6c2.4,2.1,5.6,3.3,9,3.3c3.4,0,6.6-1.3,9-3.3l0-2.6c0-1.6-1.4-3-3-3h-12
	c-1.6,0-3,1.4-3,3L-290,407.6z"/>
</svg>
